<?xml version="1.0" encoding="utf-8"?>
<!-- Generator: Adobe Illustrator 19.0.1, SVG Export Plug-In . SVG Version: 6.00 Build 0)  -->
<!DOCTYPE svg PUBLIC "-//W3C//DTD SVG 1.1//EN" "http://www.w3.org/Graphics/SVG/1.1/DTD/svg11.dtd">
<svg version="1.1" id="Layer_1" xmlns="http://www.w3.org/2000/svg" xmlns:xlink="http://www.w3.org/1999/xlink" x="0px" y="0px"
	 width="787.484px" height="264px" viewBox="0 0 787.484 264" style="enable-background:new 0 0 787.484 264;" xml:space="preserve"
	>
<style type="text/css">
	.st0{fill:#FFFFFF;}
</style>
<g>
	<rect x="370.699" y="94.697" class="st0" width="25.267" height="110.251"/>
	<path class="st0" d="M301.798,175.711l-29.651-81.014H264V23.932C264,10.715,253.285,0,240.068,0H23.932
		C10.715,0,0,10.715,0,23.932v216.136C0,253.285,10.715,264,23.932,264h216.136C253.285,264,264,253.285,264,240.068v-98.796
		l26.315,64.507h22.76l45.104-111.082H331.66L301.798,175.711z M88.229,51.282c8.777,0,16.128,6.877,16.128,15.886
		c0,9.016-7.351,15.894-16.128,15.894c-8.775,0-16.126-6.878-16.126-15.894C72.103,58.159,79.453,51.282,88.229,51.282z
		 M196.123,203.299c-16.364,0-24.189-9.718-24.189-23.004c0-3.79,0.472-7.826,1.658-11.858l7.828-27.984
		c0.948-3.084,1.186-5.928,1.186-8.538c0-9.009-5.455-14.466-14.23-14.466c-11.148,0-18.5,8-22.293,23.417l-15.18,60.884h-26.561
		l4.767-19.133c-7.807,12.825-18.65,20.769-32.026,20.769c-16.127,0-23.717-9.29-23.717-23.285c0-3.552,0.476-7.906,1.423-11.938
		l12.095-49.412H48.15l5.692-21h45.061l-17.789,70.562c-1.186,4.509-1.66,8.25-1.66,10.854c0,4.512,2.221,5.831,5.694,6.615
		c2.115,0.474,18.969,0.143,28.145-20.253l11.682-46.778h-18.973l5.692-21h40.554l-5.217,23.842
		c7.114-13.283,21.344-25.903,35.336-25.903c14.941,0,27.275,10.644,27.275,31.04c0,5.215-0.712,10.893-2.609,17.295l-7.591,27.265
		c-0.709,2.852-1.186,5.221-1.186,7.355c0,4.741,1.898,7.112,5.457,7.112c3.557,0,8.063-2.615,13.281-17.074l10.434,4.029
		C221.262,194.291,210.116,203.299,196.123,203.299z"/>
	<path class="st0" d="M462.997,139.799c-12.95-4.183-24.855-7.52-24.855-15.453v-0.419c0-6.473,5.639-11.068,15.453-11.068
		c4.787,0,10.145,1.098,15.683,3.041l-0.003-0.013c0,0,0.054,0.027,0.159,0.074c0.476,0.169,0.96,0.358,1.443,0.54
		c3.997,1.264,14.777,2.953,23.862-11.156c-11.696-7.73-26.727-12.534-40.517-12.534c-21.922,0-39.254,12.737-39.254,33.622v0.419
		c0,21.088,18.166,27.77,34.453,32.365c12.949,3.966,24.645,6.889,24.645,15.449v0.415c0,7.311-6.267,11.906-17.125,11.906
		c-7.22,0-15.125-1.905-23.004-5.618c-2.267-0.956-14.061-4.99-24.146,9.351c13.74,10.73,30.953,16.314,46.524,16.314
		c22.963,0,40.926-11.48,40.926-34.666v-0.416C497.241,152.12,479.075,144.809,462.997,139.799z"/>
	<path class="st0" d="M748.226,92.396c-17.125,0-27.355,8.98-34.456,19.419V94.697h-25.264v110.251h25.264v-62.23
		c0-17.122,10.233-27.351,24.852-27.351c15.037,0,23.595,9.811,23.595,26.932v62.649h25.267v-70.163
		C787.484,109.102,773.075,92.396,748.226,92.396z"/>
	<rect x="513.94" y="94.697" class="st0" width="25.271" height="110.251"/>
	<path class="st0" d="M614.59,92.396c-33.828,0-58.889,26.098-58.889,57.842c0,31.527,24.848,57.213,58.47,57.213
		c34.041,0,59.099-26.102,59.099-57.632C673.27,118.082,648.415,92.396,614.59,92.396z M614.59,185.529
		c-19.632,0-33.622-16.081-33.622-35.71c0-19.416,12.946-35.291,33.203-35.291c19.835,0,33.828,16.078,33.828,35.71
		C647.999,169.657,635.05,185.529,614.59,185.529z"/>
</g>
</svg>
